Coordinates
version=1
nRows=31
nColumns=38
inDegrees=no

Units are S.I. units (second, meters, Newtons, ...)
If the header above contains a line with 'inDegrees', this indicates whether rotational values are in degrees (yes) or radians (no).

endheader
time	pelvis_tilt	pelvis_list	pelvis_rotation	pelvis_tx	pelvis_ty	pelvis_tz	hip_flexion_r	hip_adduction_r	hip_rotation_r	knee_angle_r	ankle_angle_r	subtalar_angle_r	mtp_angle_r	hip_flexion_l	hip_adduction_l	hip_rotation_l	knee_angle_l	ankle_angle_l	subtalar_angle_l	mtp_angle_l	lumbar_extension	lumbar_bending	lumbar_rotation	arm_flex_r	arm_add_r	arm_rot_r	elbow_flex_r	pro_sup_r	wrist_flex_r	wrist_dev_r	arm_flex_l	arm_add_l	arm_rot_l	elbow_flex_l	pro_sup_l	wrist_flex_l	wrist_dev_l
0.6	0.147493	1.26223	-1.47999	0.501857	1.47156	1.11103	-0.181248	0.0382517	-0.215006	0.393278	-0.193773	0	0	0.105091	-0.127817	0.0515823	1.09093	-0.12785	0	0	-0.465799	0.107419	-0.164441	0.618965	-0.492536	0.603131	1.1433	0.700825	0	0	0.291328	-0.497477	0.103823	1.22809	0.719876	0	0
0.61	0.157144	1.26528	-1.49313	0.503237	1.46014	1.11144	-0.189951	0.03475	-0.215822	0.393641	-0.190082	0	0	0.116905	-0.119203	0.0464283	1.0499	-0.127814	0	0	-0.465762	0.101915	-0.16252	0.619839	-0.491778	0.603325	1.14359	0.702697	0	0	0.293136	-0.499304	0.104369	1.22865	0.718431	0	0
0.62	0.169236	1.26734	-1.50912	0.504613	1.44867	1.11168	-0.19944	0.0305419	-0.214113	0.395647	-0.179766	0	0	0.125373	-0.110158	0.0401677	1.00622	-0.128158	0	0	-0.466068	0.0956168	-0.161273	0.623509	-0.491915	0.60922	1.14288	0.694128	0	0	0.293861	-0.502185	0.10419	1.22934	0.721913	0	0
0.63	0.180143	1.2687	-1.52508	0.505817	1.43703	1.11177	-0.209608	0.0271409	-0.208661	0.39764	-0.170813	0	0	0.131029	-0.102596	0.0313372	0.960238	-0.129014	0	0	-0.4668	0.0891241	-0.158683	0.624894	-0.490549	0.610366	1.14233	0.69258	0	0	0.294416	-0.504575	0.103809	1.23042	0.722874	0	0
0.64	0.187426	1.26959	-1.5385	0.506885	1.4252	1.11164	-0.220319	0.0253573	-0.200014	0.399155	-0.166874	0	0	0.134399	-0.0972556	0.0210036	0.912202	-0.128155	0	0	-0.467711	0.0833658	-0.154761	0.625383	-0.48908	0.610061	1.14243	0.693865	0	0	0.294518	-0.507014	0.103861	1.23213	0.722885	0	0
0.65	0.193465	1.27112	-1.54922	0.508484	1.4132	1.11112	-0.230303	0.0233951	-0.193152	0.402166	-0.157464	0	0	0.137269	-0.0916988	0.0136496	0.862355	-0.129433	0	0	-0.46685	0.0792161	-0.152863	0.626688	-0.488351	0.612261	1.14249	0.692377	0	0	0.292672	-0.508868	0.102576	1.23399	0.726871	0	0
0.66	0.199561	1.27308	-1.55911	0.510453	1.40118	1.11027	-0.239191	0.0205408	-0.18704	0.407946	-0.137067	0	0	0.139003	-0.0852598	0.0101409	0.809254	-0.135233	0	0	-0.464545	0.0757974	-0.152589	0.628658	-0.486827	0.615265	1.14097	0.693102	0	0	0.289523	-0.509458	0.0990261	1.23595	0.728567	0	0
0.67	0.201204	1.27551	-1.56422	0.512651	1.38912	1.1091	-0.247791	0.01908	-0.181235	0.412006	-0.132367	0	0	0.139996	-0.0800312	0.00889143	0.755014	-0.133825	0	0	-0.461692	0.074472	-0.15108	0.629671	-0.487804	0.61759	1.14204	0.691171	0	0	0.287304	-0.50661	0.0944283	1.23777	0.724499	0	0
0.68	0.201246	1.27853	-1.56752	0.514983	1.37703	1.10763	-0.254655	0.0179352	-0.175888	0.419317	-0.117553	0	0	0.13989	-0.0751267	0.00994917	0.697797	-0.135788	0	0	-0.457941	0.0736718	-0.150013	0.628955	-0.486617	0.615359	1.14232	0.698694	0	0	0.284732	-0.506693	0.0928588	1.23971	0.723757	0	0
0.69	0.197011	1.28109	-1.56561	0.517527	1.365	1.10601	-0.261768	0.0178078	-0.174085	0.426324	-0.108857	0	0	0.138144	-0.0716434	0.012952	0.638696	-0.134634	0	0	-0.45452	0.0745147	-0.149132	0.630451	-0.488286	0.618371	1.1435	0.695108	0	0	0.28299	-0.509188	0.0947947	1.24082	0.730059	0	0
0.7	0.191577	1.28364	-1.56123	0.520323	1.35305	1.10421	-0.268349	0.0176782	-0.174756	0.434727	-0.0942688	0	0	0.13489	-0.0680747	0.0202751	0.576102	-0.134947	0	0	-0.451242	0.0762427	-0.14884	0.631339	-0.490658	0.620225	1.14589	0.691752	0	0	0.281573	-0.506157	0.091827	1.24261	0.724993	0	0
0.71	0.183722	1.28651	-1.55385	0.523319	1.34104	1.10223	-0.274801	0.0181912	-0.176203	0.441973	-0.0859901	0	0	0.131541	-0.0659032	0.0283148	0.513727	-0.132033	0	0	-0.447652	0.0788738	-0.149011	0.631279	-0.492544	0.619778	1.14868	0.692227	0	0	0.279623	-0.504384	0.0897677	1.24485	0.721014	0	0
0.72	0.174539	1.28965	-1.54475	0.52645	1.32893	1.10009	-0.281029	0.0190233	-0.179691	0.449133	-0.0808762	0	0	0.128443	-0.0649255	0.035052	0.452761	-0.126619	0	0	-0.443561	0.082001	-0.149772	0.631609	-0.494719	0.620341	1.15167	0.691984	0	0	0.276957	-0.503818	0.0879495	1.24719	0.722661	0	0
0.73	0.166478	1.2924	-1.53614	0.529706	1.31678	1.09792	-0.287445	0.0191166	-0.186379	0.457149	-0.0727151	0	0	0.123759	-0.0639456	0.0421674	0.390655	-0.122105	0	0	-0.439968	0.0848484	-0.151306	0.631663	-0.496457	0.619929	1.15482	0.692018	0	0	0.274235	-0.503282	0.0859368	1.25009	0.722335	0	0
0.74	0.158449	1.29498	-1.52733	0.533098	1.30453	1.09567	-0.294024	0.0188752	-0.194775	0.465328	-0.0656496	0	0	0.118491	-0.0634183	0.0467391	0.330783	-0.114036	0	0	-0.436198	0.0875934	-0.153225	0.631664	-0.497798	0.619261	1.15741	0.692968	0	0	0.271611	-0.502318	0.0838608	1.25282	0.720296	0	0
0.75	0.15229	1.29735	-1.52006	0.536635	1.29219	1.09336	-0.300976	0.0178912	-0.204252	0.473617	-0.0579081	0	0	0.112686	-0.0624476	0.0488207	0.273877	-0.102791	0	0	-0.43241	0.0895791	-0.155269	0.629557	-0.498007	0.614533	1.16002	0.700588	0	0	0.269679	-0.50181	0.0832488	1.25532	0.718106	0	0
0.76	0.14746	1.29991	-1.5143	0.540272	1.27971	1.09091	-0.307618	0.0162027	-0.213876	0.482484	-0.0527223	0	0	0.10821	-0.0613676	0.0458605	0.223787	-0.0878796	0	0	-0.427827	0.0909624	-0.157629	0.629857	-0.499789	0.615543	1.16204	0.699283	0	0	0.267362	-0.50255	0.0833418	1.25732	0.722338	0	0
0.77	0.14285	1.30235	-1.5084	0.543983	1.26713	1.08838	-0.314231	0.01457	-0.223313	0.492058	-0.0464884	0	0	0.102136	-0.0604572	0.0470092	0.173209	-0.073717	0	0	-0.423003	0.0921945	-0.160279	0.6298	-0.501454	0.616193	1.16402	0.699314	0	0	0.265309	-0.502861	0.083089	1.25886	0.727011	0	0
0.78	0.136867	1.30424	-1.5006	0.547725	1.25448	1.08579	-0.321326	0.0136951	-0.231911	0.502538	-0.038291	0	0	0.0920583	-0.0607643	0.0580014	0.118388	-0.0696901	0	0	-0.418358	0.0936399	-0.163133	0.629309	-0.502871	0.61621	1.16602	0.699242	0	0	0.263892	-0.502796	0.0829817	1.26008	0.728646	0	0
0.79	0.127725	1.30571	-1.48984	0.551507	1.24166	1.08314	-0.329403	0.0139756	-0.238012	0.511387	-0.0344927	0	0	0.08306	-0.0628427	0.0683566	0.075473	-0.0668477	0	0	-0.413762	0.0957662	-0.165415	0.628421	-0.504363	0.615705	1.16801	0.700181	0	0	0.263049	-0.502667	0.0838013	1.26099	0.727086	0	0
0.8	0.120578	1.30671	-1.48147	0.555338	1.22872	1.08053	-0.337229	0.013047	-0.243751	0.522101	-0.031994	0	0	0.0771324	-0.0643373	0.0752758	0.0509358	-0.0642505	0	0	-0.409564	0.0970324	-0.167323	0.627148	-0.50552	0.614366	1.16965	0.700986	0	0	0.262352	-0.502687	0.0846226	1.26195	0.725492	0	0
0.81	0.116793	1.30682	-1.47743	0.559175	1.2156	1.07813	-0.345861	0.0106175	-0.247811	0.532986	-0.0326284	0	0	0.0744793	-0.0645926	0.0773389	0.0474136	-0.0624189	0	0	-0.405977	0.0969027	-0.169091	0.626967	-0.506481	0.615395	1.16999	0.698995	0	0	0.261249	-0.501978	0.0839911	1.26248	0.725833	0	0
0.82	0.117298	1.30566	-1.47929	0.562886	1.20221	1.07605	-0.355377	0.00624201	-0.250102	0.545202	-0.0324268	0	0	0.0725621	-0.0634791	0.0771857	0.0608873	-0.0593987	0	0	-0.404081	0.0948141	-0.168454	0.623249	-0.506934	0.610401	1.1718	0.703806	0	0	0.2618	-0.502071	0.0864514	1.26272	0.725927	0	0
0.83	0.121754	1.30292	-1.48742	0.566359	1.18848	1.07438	-0.366281	0.000107274	-0.2494	0.557476	-0.0356248	0	0	0.069803	-0.0613545	0.0741545	0.0891014	-0.0544243	0	0	-0.403244	0.0907883	-0.166518	0.62138	-0.507833	0.610165	1.17227	0.702046	0	0	0.2614	-0.501671	0.0873545	1.26247	0.729017	0	0
0.84	0.130762	1.29907	-1.50272	0.569552	1.17431	1.07306	-0.377609	-0.00855904	-0.246115	0.571005	-0.0414112	0	0	0.0665073	-0.0581884	0.0658588	0.129476	-0.0458523	0	0	-0.403211	0.0841306	-0.161894	0.617525	-0.508465	0.607824	1.17279	0.70162	0	0	0.26093	-0.500738	0.0882059	1.26223	0.731043	0	0
0.85	0.143308	1.2939	-1.52351	0.572589	1.15981	1.07206	-0.389582	-0.0190383	-0.240705	0.585863	-0.0490566	0	0	0.0602816	-0.0538401	0.0557163	0.169642	-0.0374051	0	0	-0.40404	0.0753665	-0.155484	0.612432	-0.508734	0.604322	1.17298	0.702538	0	0	0.260516	-0.500246	0.0899495	1.26195	0.732987	0	0
0.86	0.158109	1.28815	-1.54775	0.575587	1.14501	1.07121	-0.400217	-0.0315814	-0.235669	0.60511	-0.0577797	0	0	0.051798	-0.0479439	0.0450557	0.201575	-0.0292251	0	0	-0.404647	0.0651857	-0.148231	0.606421	-0.508607	0.600356	1.17272	0.703449	0	0	0.259791	-0.500163	0.0922867	1.26143	0.735484	0	0
0.87	0.172891	1.28249	-1.57192	0.578663	1.13017	1.07052	-0.40794	-0.0453881	-0.229781	0.626316	-0.0711086	0	0	0.0431707	-0.0411989	0.0351794	0.222733	-0.0216506	0	0	-0.404901	0.0547863	-0.141051	0.600071	-0.508084	0.595977	1.17196	0.704154	0	0	0.259127	-0.499967	0.0946589	1.26062	0.73775	0	0
0.88	0.189187	1.27785	-1.596	0.581909	1.11547	1.06994	-0.411707	-0.0599541	-0.225276	0.651338	-0.0895778	0	0	0.0347765	-0.0341644	0.0298553	0.232962	-0.0166247	0	0	-0.404395	0.0441662	-0.135257	0.593054	-0.507112	0.590561	1.17138	0.705274	0	0	0.258638	-0.499632	0.0965063	1.25997	0.739232	0	0
0.89	0.20596	1.27422	-1.6177	0.585503	1.10101	1.06958	-0.412083	-0.0737353	-0.222166	0.678822	-0.122033	0	0	0.0245239	-0.0273304	0.0322488	0.232229	-0.0197547	0	0	-0.404037	0.0342479	-0.130872	0.581282	-0.504007	0.574872	1.17269	0.71943	0	0	0.260022	-0.499475	0.0999343	1.25926	0.741859	0	0
0.9	0.220774	1.27105	-1.6347	0.589624	1.08679	1.06938	-0.410006	-0.0865627	-0.22048	0.708904	-0.146913	0	0	0.012991	-0.021135	0.0383905	0.228116	-0.0292989	0	0	-0.402937	0.0267163	-0.131099	0.576795	-0.503125	0.572599	1.1719	0.717241	0	0	0.259148	-0.499459	0.100325	1.2591	0.744145	0	0
